name analog
datacolumns 19
datarows 43
range 0.4455 0.4665
endheader
time	ground_force_vx	ground_force_vy	ground_force_vz	ground_force_px	ground_force_py	ground_force_pz	l_ground_force_vx	l_ground_force_vy	l_ground_force_vz	l_ground_force_px	l_ground_force_py	l_ground_force_pz	ground_torque_x	ground_torque_y	ground_torque_z	l_ground_torque_x	l_ground_torque_y	l_ground_torque_z
0.4455	-0.0	-0.0	-0.0	3.597914457321167	72.08403778076172	-516.6439208984375	32.71181869506836	-115.36265563964844	-694.7852783203125	-35.1944694519043	16.40439796447754	75.60100555419922	-0.0	-0.0	-0.0	106564.953125	-58489.51171875	3168.0146484375
0.446	-0.0	-0.0	-0.0	1.1149952411651611	73.3615951538086	-521.3522338867188	32.67560195922852	-114.47187042236328	-697.9541015625	-35.70888137817383	16.306930541992188	75.07392120361328	-0.0	-0.0	-0.0	107277.265625	-58563.5625	2955.661376953125
0.4465	-0.0	-0.0	-0.0	0.4534519910812378	74.9289321899414	-526.17919921875	31.83244132995605	-114.2589340209961	-700.427734375	-35.09774398803711	15.894429206848145	76.09771728515625	-0.0	-0.0	-0.0	107910.3671875	-58527.08984375	2955.095947265625
0.447	-0.0	-0.0	-0.0	0.2604219913482666	75.9463119506836	-531.7705688476562	32.30553436279297	-115.5688705444336	-705.3734741210938	-35.42555236816406	16.270408630371094	76.56676483154297	-0.0	-0.0	-0.0	108839.1015625	-58979.5546875	2913.0537109375
0.4475	-0.0	-0.0	-0.0	0.6685813069343567	76.89749908447266	-537.7144775390625	34.16080856323242	-116.89346313476562	-712.5880737304688	-35.261802673339844	16.306612014770508	75.6599349975586	-0.0	-0.0	-0.0	110215.59375	-59742.921875	3223.008544921875
0.448	-0.0	-0.0	-0.0	3.0029613971710205	77.24588775634766	-547.0159912109375	36.66648864746094	-117.98985290527344	-721.7239379882812	-35.1790657043457	16.194534301757812	75.27548217773438	-0.0	-0.0	-0.0	111322.4921875	-60523.02734375	3783.110595703125
0.4485	-0.0	-0.0	-0.0	5.382944107055664	77.65443420410156	-555.2254638671875	38.69975662231445	-119.61614227294922	-726.7295532226562	-35.24663543701172	16.47981834411621	74.57288360595703	-0.0	-0.0	-0.0	112472.1640625	-61053.6875	4276.06982421875
0.449	-0.0	-0.0	-0.0	7.9092698097229	78.0999755859375	-561.7025756835938	39.7641716003418	-121.4255599975586	-731.2946166992188	-35.12013244628906	16.269052505493164	76.71318054199219	-0.0	-0.0	-0.0	113137.1640625	-61309.6796875	4632.29736328125
0.4495	-0.0	-0.0	-0.0	9.314844131469728	79.48902130126953	-569.9969482421875	40.18598937988281	-123.05364227294922	-739.9373779296875	-35.536582946777344	16.067344665527344	76.68928527832031	-0.0	-0.0	-0.0	113627.8359375	-61424.7421875	4792.7646484375
0.45	-0.0	-0.0	-0.0	10.04386043548584	81.01953125	-578.7402954101562	41.22896194458008	-124.26228332519533	-742.4410400390625	-35.38856887817383	15.909049034118652	75.14094543457031	-0.0	-0.0	-0.0	114292.28125	-61757.9296875	5005.89892578125
0.4505	-0.0	-0.0	-0.0	10.007009506225586	83.61033630371094	-588.7747802734375	42.617897033691406	-124.4513931274414	-746.9439697265625	-35.326351165771484	15.940278053283691	75.0427017211914	-0.0	-0.0	-0.0	115036.78125	-61754.03125	5152.0869140625
0.451	-0.0	-0.0	-0.0	9.760796546936035	86.33053588867188	-592.6589965820312	43.410282135009766	-124.24737548828124	-749.4841918945312	-35.22536849975586	16.194534301757812	76.07318115234375	-0.0	-0.0	-0.0	115512.1953125	-61597.25	5213.0537109375
0.4515	-0.0	-0.0	-0.0	8.438165664672852	88.85321807861328	-597.3115844726562	43.20215606689453	-124.6313705444336	-751.8677368164062	-35.48826217651367	16.511743545532227	75.37149047851562	-0.0	-0.0	-0.0	115457.6640625	-61433.6171875	5178.0166015625
0.452	-0.0	-0.0	-0.0	6.848036289215088	91.89899444580078	-600.48974609375	42.22064208984375	-124.95411682128906	-755.6473999023438	-35.33609771728516	16.104564666748047	76.01203918457031	-0.0	-0.0	-0.0	116088.0703125	-61316.125	5034.1005859375
0.4525	-0.0	-0.0	-0.0	5.620262145996094	94.7402572631836	-600.6348266601562	42.054420471191406	-124.58547973632812	-759.40478515625	-35.251792907714844	16.342632293701172	75.8056640625	-0.0	-0.0	-0.0	116147.8203125	-60841.42578125	4702.61279296875
0.453	-0.0	-0.0	-0.0	4.94865608215332	96.46003723144533	-603.0235595703125	41.673118591308594	-124.87133026123048	-759.75390625	-35.3202018737793	16.24248695373535	75.22846221923828	-0.0	-0.0	-0.0	116439.5234375	-60537.39453125	4546.95361328125
0.4535	-0.0	-0.0	-0.0	4.371315002441406	97.67610168457033	-604.8091430664062	40.71309280395508	-124.6894760131836	-758.9736328125	-35.272220611572266	16.173641204833984	74.6463623046875	-0.0	-0.0	-0.0	116059.984375	-59458.1015625	4061.25732421875
0.454	-0.0	-0.0	-0.0	3.96191143989563	99.49506378173828	-606.9082641601562	39.04352951049805	-124.09196472167967	-757.5154418945312	-35.12508773803711	15.977679252624512	75.04080963134766	-0.0	-0.0	-0.0	115552.03125	-58271.1796875	3529.874755859375
0.4545	-0.0	-0.0	-0.0	4.030405521392822	101.933349609375	-608.2389526367188	36.50745391845703	-124.12338256835938	-753.6941528320312	-35.62510299682617	16.178377151489258	76.07568359375	-0.0	-0.0	-0.0	114425.0703125	-56838.5546875	2894.592529296875
0.455	-0.0	-0.0	-0.0	4.25692892074585	103.80950927734376	-609.5433959960938	33.55491256713867	-124.0761947631836	-750.676025390625	-35.30381393432617	15.982126235961914	76.23709869384766	-0.0	-0.0	-0.0	113507.9375	-55377.1640625	2257.415771484375
0.4555	-0.0	-0.0	-0.0	3.673715591430664	105.79339599609376	-610.3297119140625	29.8909912109375	-124.6264190673828	-744.1674194335938	-35.45798873901367	16.051424026489258	75.8056640625	-0.0	-0.0	-0.0	112357.375	-53799.1328125	1209.6348876953125
0.456	-0.0	-0.0	-0.0	2.6763153076171875	107.01757049560548	-611.4351806640625	25.45123291015625	-124.89122772216795	-739.0108032226562	-35.2872428894043	16.018638610839844	75.37506103515625	-0.0	-0.0	-0.0	110877.1640625	-51992.0546875	281.55377197265625
0.4565	-0.0	-0.0	-0.0	1.569288969039917	108.60137939453124	-610.7764892578125	20.96784400939941	-125.38062286376952	-731.5823364257812	-35.46211242675781	16.231300354003906	74.7528076171875	-0.0	-0.0	-0.0	109302.6953125	-50240.2109375	-581.9662475585938
0.457	-0.0	-0.0	-0.0	-0.1784210205078125	109.73968505859376	-610.0861206054688	16.846961975097656	-126.53286743164062	-725.1719970703125	-35.44565200805664	16.031108856201172	74.62397003173828	-0.0	-0.0	-0.0	107801.53125	-48547.4453125	-1291.6715087890625
0.4575	-0.0	-0.0	-0.0	-2.3833606243133545	111.5912628173828	-605.7830200195312	13.089086532592772	-127.62100219726562	-719.5377197265625	-35.40557098388672	16.244306564331055	75.02536010742188	-0.0	-0.0	-0.0	106369.3359375	-46707.6875	-2102.167236328125
0.458	-0.0	-0.0	-0.0	-5.4453959465026855	112.433349609375	-600.5359497070312	10.040576934814451	-128.36749267578125	-713.5233154296875	-35.40565872192383	15.947998046875	75.72760772705078	-0.0	-0.0	-0.0	104939.1171875	-45217.19140625	-2689.79150390625
0.4585	-0.0	-0.0	-0.0	-8.551077842712402	113.77344512939452	-596.4556274414062	7.71079683303833	-129.56790161132812	-707.7303466796875	-35.24663543701172	16.247882843017578	75.59756469726562	-0.0	-0.0	-0.0	103480.484375	-43367.44921875	-3148.78955078125
0.459	-0.0	-0.0	-0.0	-11.346306800842283	113.92838287353516	-588.1883544921875	4.783718585968018	-130.48379516601562	-699.6221313476562	-35.31938552856445	16.098608016967773	76.22216033935547	-0.0	-0.0	-0.0	101772.53125	-41695.9921875	-3548.787109375
0.4595	-0.0	-0.0	-0.0	-13.133615493774414	115.23204803466795	-582.2379760742188	1.8629264831542969	-131.1904754638672	-692.7042236328125	-35.227046966552734	16.267650604248047	75.09264373779297	-0.0	-0.0	-0.0	100061.03125	-40101.26171875	-3971.810546875
0.46	-0.0	-0.0	-0.0	-15.935282707214355	115.53254699707033	-576.2461547851562	-1.0314582586288452	-131.6876220703125	-683.5618896484375	-35.81705474853516	16.340612411499023	75.58679962158203	-0.0	-0.0	-0.0	98209.171875	-38135.09375	-4401.333984375
0.4605	-0.0	-0.0	-0.0	-17.688459396362305	115.74686431884766	-571.3787231445312	-4.208284378051758	-131.5799560546875	-675.7390747070312	-35.207908630371094	16.231016159057617	75.59701538085938	-0.0	-0.0	-0.0	96625.7578125	-36380.4609375	-5014.41845703125
0.461	-0.0	-0.0	-0.0	-20.398195266723636	116.62133026123048	-568.6094360351562	-7.756629943847656	-131.47511291503906	-667.0760498046875	-35.42555236816406	16.6079158782959	77.5604248046875	-0.0	-0.0	-0.0	95332.71875	-34708.33984375	-5622.236328125
0.4615	-0.0	-0.0	-0.0	-22.196537017822266	116.74636840820312	-565.87060546875	-11.146696090698242	-131.2985076904297	-658.9806518554688	-35.423362731933594	16.50307273864746	74.8281478881836	-0.0	-0.0	-0.0	93310.1171875	-33047.359375	-6278.0322265625
0.462	-0.0	-0.0	-0.0	-23.052438735961918	117.18511962890624	-561.3372192382812	-13.630257606506348	-130.1861572265625	-650.5262451171875	-35.3170051574707	16.265304565429688	74.76065063476562	-0.0	-0.0	-0.0	91899.2890625	-31580.12890625	-6800.54736328125
0.4625	-0.0	-0.0	-0.0	-23.534563064575195	117.34659576416016	-555.5010986328125	-16.5529842376709	-129.59922790527344	-640.9672241210938	-35.49600601196289	16.158172607421875	75.93292236328125	-0.0	-0.0	-0.0	90024.09375	-29988.10546875	-7324.3955078125
0.463	-0.0	-0.0	-0.0	-23.695819854736328	117.20648193359376	-552.8619384765625	-18.223655700683597	-128.94967651367188	-631.8897705078125	-35.227745056152344	16.06991958618164	76.01492309570312	-0.0	-0.0	-0.0	88751.1171875	-28523.388671875	-7403.08154296875
0.4635	-0.0	-0.0	-0.0	-24.388795852661133	116.99222564697266	-548.9775390625	-19.6220817565918	-128.011962890625	-624.4837646484375	-35.44285583496094	16.121963500976562	76.9942626953125	-0.0	-0.0	-0.0	87362.703125	-27602.720703125	-7680.87353515625
0.464	-0.0	-0.0	-0.0	-24.318479537963867	117.18773651123048	-544.2442626953125	-20.27894592285156	-126.89958953857422	-616.9442138671875	-35.55105972290039	16.032060623168945	75.17189025878906	-0.0	-0.0	-0.0	86318.3671875	-26489.943359375	-7723.36767578125
0.4645	-0.0	-0.0	-0.0	-25.068153381347656	116.94046783447266	-540.718505859375	-19.95992660522461	-125.5206298828125	-609.26953125	-35.08515167236328	16.12325668334961	75.94241333007812	-0.0	-0.0	-0.0	84956.96875	-25474.15625	-7586.47021484375
0.465	-0.0	-0.0	-0.0	-25.138811111450195	116.68785858154295	-537.475830078125	-19.746749877929688	-123.7215576171875	-600.3323364257812	-35.19315719604492	16.176929473876953	75.59205627441406	-0.0	-0.0	-0.0	83781.109375	-24592.080078125	-7437.56689453125
0.4655	-0.0	-0.0	-0.0	-25.087589263916016	116.4944305419922	-533.2247314453125	-20.36776351928711	-122.5365753173828	-593.2720336914062	-35.33609771728516	16.194534301757812	75.38269805908203	-0.0	-0.0	-0.0	82747.0234375	-23731.466796875	-7289.0224609375
0.466	-0.0	-0.0	-0.0	-24.551252365112305	116.35013580322266	-529.6279296875	-20.15467643737793	-120.5936050415039	-585.523193359375	-35.28255081176758	16.158416748046875	75.66477966308594	-0.0	-0.0	-0.0	81313.0390625	-22803.05859375	-7158.19287109375
0.4665	-0.0	-0.0	-0.0	-24.2652587890625	115.87020111083984	-527.2254638671875	-20.757474899291992	-119.12693786621094	-577.8425903320312	-35.264801025390625	16.194534301757812	75.73440551757812	-0.0	-0.0	-0.0	80131.609375	-21873.4453125	-7034.095703125
